<mxfile host="app.diagrams.net" modified="2022-09-21T01:21:34.252Z" agent="5.0 (Macintosh; Intel Mac OS X 10_15_7) AppleWebKit/537.36 (KHTML, like Gecko) Chrome/105.0.0.0 Safari/537.36" etag="Kxous3E-GGoXTrIIG6Hs" version="20.3.3" type="github">
  <diagram id="R2lEEEUBdFMjLlhIrx00" name="Page-1">
    <mxGraphModel dx="2061" dy="861" grid="0" gridSize="10" guides="1" tooltips="1" connect="1" arrows="1" fold="1" page="0" pageScale="1" pageWidth="850" pageHeight="1100" math="0" shadow="0" extFonts="Permanent Marker^https://fonts.googleapis.com/css?family=Permanent+Marker">
      <root>
        <mxCell id="0" />
        <mxCell id="1" parent="0" />
        <mxCell id="ygEIZ-_n2uFTBbBvWgzW-1" value="&lt;b&gt;AGENT&lt;/b&gt;" style="rounded=0;whiteSpace=wrap;html=1;" vertex="1" parent="1">
          <mxGeometry x="110" y="130" width="110" height="50" as="geometry" />
        </mxCell>
        <mxCell id="ygEIZ-_n2uFTBbBvWgzW-2" value="&lt;b&gt;POLICY&lt;/b&gt;" style="rounded=0;whiteSpace=wrap;html=1;" vertex="1" parent="1">
          <mxGeometry x="80" y="385" width="100" height="45" as="geometry" />
        </mxCell>
        <mxCell id="ygEIZ-_n2uFTBbBvWgzW-4" value="&lt;b&gt;POLICY HOLDER&lt;/b&gt;" style="rounded=0;whiteSpace=wrap;html=1;" vertex="1" parent="1">
          <mxGeometry x="-257" y="396" width="120" height="32.5" as="geometry" />
        </mxCell>
        <mxCell id="ygEIZ-_n2uFTBbBvWgzW-5" value="&lt;b&gt;BENEFICIARY&lt;/b&gt;" style="rounded=0;whiteSpace=wrap;html=1;" vertex="1" parent="1">
          <mxGeometry x="555" y="360" width="107.5" height="45" as="geometry" />
        </mxCell>
        <mxCell id="ygEIZ-_n2uFTBbBvWgzW-7" value="agent_Name" style="ellipse;whiteSpace=wrap;html=1;" vertex="1" parent="1">
          <mxGeometry x="244" y="105" width="90" height="45" as="geometry" />
        </mxCell>
        <mxCell id="ygEIZ-_n2uFTBbBvWgzW-10" value="agent_ID" style="ellipse;whiteSpace=wrap;html=1;" vertex="1" parent="1">
          <mxGeometry x="-21" y="99" width="90" height="40" as="geometry" />
        </mxCell>
        <mxCell id="ygEIZ-_n2uFTBbBvWgzW-12" value="agent_Department" style="ellipse;whiteSpace=wrap;html=1;" vertex="1" parent="1">
          <mxGeometry x="100" y="57" width="130" height="40" as="geometry" />
        </mxCell>
        <mxCell id="ygEIZ-_n2uFTBbBvWgzW-14" value="policy_ID" style="ellipse;whiteSpace=wrap;html=1;" vertex="1" parent="1">
          <mxGeometry x="230" y="420" width="110" height="40" as="geometry" />
        </mxCell>
        <mxCell id="ygEIZ-_n2uFTBbBvWgzW-16" value="typeOfPolicy" style="ellipse;whiteSpace=wrap;html=1;" vertex="1" parent="1">
          <mxGeometry x="230" y="340" width="90" height="30" as="geometry" />
        </mxCell>
        <mxCell id="ygEIZ-_n2uFTBbBvWgzW-18" value="policyExpirationDate" style="ellipse;whiteSpace=wrap;html=1;" vertex="1" parent="1">
          <mxGeometry x="10" y="300" width="130" height="40" as="geometry" />
        </mxCell>
        <mxCell id="ygEIZ-_n2uFTBbBvWgzW-20" value="payment_Option" style="ellipse;whiteSpace=wrap;html=1;" vertex="1" parent="1">
          <mxGeometry x="130" y="550" width="130" height="40" as="geometry" />
        </mxCell>
        <mxCell id="ygEIZ-_n2uFTBbBvWgzW-21" value="total_Amount" style="ellipse;whiteSpace=wrap;html=1;" vertex="1" parent="1">
          <mxGeometry x="160" y="290" width="100" height="40" as="geometry" />
        </mxCell>
        <mxCell id="ygEIZ-_n2uFTBbBvWgzW-22" value="policyHolder_ID" style="ellipse;whiteSpace=wrap;html=1;" vertex="1" parent="1">
          <mxGeometry x="-227" y="320" width="130" height="40" as="geometry" />
        </mxCell>
        <mxCell id="ygEIZ-_n2uFTBbBvWgzW-23" value="policyHolder_Name" style="ellipse;whiteSpace=wrap;html=1;" vertex="1" parent="1">
          <mxGeometry x="-367" y="340" width="120" height="40" as="geometry" />
        </mxCell>
        <mxCell id="ygEIZ-_n2uFTBbBvWgzW-24" value="policyHolder_Address" style="ellipse;whiteSpace=wrap;html=1;" vertex="1" parent="1">
          <mxGeometry x="-227" y="462" width="140" height="40" as="geometry" />
        </mxCell>
        <mxCell id="ygEIZ-_n2uFTBbBvWgzW-25" style="edgeStyle=orthogonalEdgeStyle;rounded=0;orthogonalLoop=1;jettySize=auto;html=1;exitX=0.5;exitY=1;exitDx=0;exitDy=0;" edge="1" parent="1" source="ygEIZ-_n2uFTBbBvWgzW-23" target="ygEIZ-_n2uFTBbBvWgzW-23">
          <mxGeometry relative="1" as="geometry" />
        </mxCell>
        <mxCell id="ygEIZ-_n2uFTBbBvWgzW-26" value="policyHolder_City" style="ellipse;whiteSpace=wrap;html=1;" vertex="1" parent="1">
          <mxGeometry x="-406" y="399" width="125" height="40" as="geometry" />
        </mxCell>
        <mxCell id="ygEIZ-_n2uFTBbBvWgzW-27" value="policyHolder_State" style="ellipse;whiteSpace=wrap;html=1;" vertex="1" parent="1">
          <mxGeometry x="-379.5" y="460" width="132.5" height="40" as="geometry" />
        </mxCell>
        <mxCell id="ygEIZ-_n2uFTBbBvWgzW-28" value="policyHolder_PhoneNum" style="ellipse;whiteSpace=wrap;html=1;" vertex="1" parent="1">
          <mxGeometry y="490" width="160" height="50" as="geometry" />
        </mxCell>
        <mxCell id="ygEIZ-_n2uFTBbBvWgzW-29" value="policyHolder_RelationshipToB" style="ellipse;whiteSpace=wrap;html=1;" vertex="1" parent="1">
          <mxGeometry x="200" y="480" width="200" height="40" as="geometry" />
        </mxCell>
        <mxCell id="ygEIZ-_n2uFTBbBvWgzW-31" value="BeneficiaryID" style="ellipse;whiteSpace=wrap;html=1;" vertex="1" parent="1">
          <mxGeometry x="662.5" y="320" width="110" height="30" as="geometry" />
        </mxCell>
        <mxCell id="ygEIZ-_n2uFTBbBvWgzW-39" value="Beneficiary_Name" style="ellipse;whiteSpace=wrap;html=1;" vertex="1" parent="1">
          <mxGeometry x="710" y="370" width="120" height="40" as="geometry" />
        </mxCell>
        <mxCell id="ygEIZ-_n2uFTBbBvWgzW-40" value="Beneficiary_Add" style="ellipse;whiteSpace=wrap;html=1;" vertex="1" parent="1">
          <mxGeometry x="720" y="430" width="110" height="30" as="geometry" />
        </mxCell>
        <mxCell id="ygEIZ-_n2uFTBbBvWgzW-41" value="Beneficiary_City" style="ellipse;whiteSpace=wrap;html=1;" vertex="1" parent="1">
          <mxGeometry x="702.5" y="480" width="120" height="30" as="geometry" />
        </mxCell>
        <mxCell id="ygEIZ-_n2uFTBbBvWgzW-42" value="Beneficiary_State" style="ellipse;whiteSpace=wrap;html=1;" vertex="1" parent="1">
          <mxGeometry x="555" y="470" width="130" height="40" as="geometry" />
        </mxCell>
        <mxCell id="ygEIZ-_n2uFTBbBvWgzW-43" value="Beneficiary_PhoneNum" style="ellipse;whiteSpace=wrap;html=1;" vertex="1" parent="1">
          <mxGeometry x="420" y="425" width="150" height="40" as="geometry" />
        </mxCell>
        <mxCell id="ygEIZ-_n2uFTBbBvWgzW-44" value="BeneficiaryRelationshipToP" style="ellipse;whiteSpace=wrap;html=1;" vertex="1" parent="1">
          <mxGeometry x="480" y="285" width="160" height="50" as="geometry" />
        </mxCell>
        <mxCell id="ygEIZ-_n2uFTBbBvWgzW-62" value="" style="endArrow=none;html=1;rounded=0;entryX=0.6;entryY=1;entryDx=0;entryDy=0;entryPerimeter=0;exitX=0.25;exitY=0;exitDx=0;exitDy=0;" edge="1" parent="1" source="ygEIZ-_n2uFTBbBvWgzW-2" target="ygEIZ-_n2uFTBbBvWgzW-18">
          <mxGeometry width="50" height="50" relative="1" as="geometry">
            <mxPoint x="60" y="390" as="sourcePoint" />
            <mxPoint x="110" y="340" as="targetPoint" />
          </mxGeometry>
        </mxCell>
        <mxCell id="ygEIZ-_n2uFTBbBvWgzW-63" value="" style="endArrow=none;html=1;rounded=0;entryX=0.36;entryY=1;entryDx=0;entryDy=0;entryPerimeter=0;" edge="1" parent="1" target="ygEIZ-_n2uFTBbBvWgzW-21">
          <mxGeometry width="50" height="50" relative="1" as="geometry">
            <mxPoint x="150" y="385" as="sourcePoint" />
            <mxPoint x="200" y="335" as="targetPoint" />
          </mxGeometry>
        </mxCell>
        <mxCell id="ygEIZ-_n2uFTBbBvWgzW-64" value="" style="endArrow=none;html=1;rounded=0;entryX=0;entryY=1;entryDx=0;entryDy=0;exitX=1;exitY=0;exitDx=0;exitDy=0;" edge="1" parent="1" source="ygEIZ-_n2uFTBbBvWgzW-2" target="ygEIZ-_n2uFTBbBvWgzW-16">
          <mxGeometry width="50" height="50" relative="1" as="geometry">
            <mxPoint x="180" y="440" as="sourcePoint" />
            <mxPoint x="230" y="390" as="targetPoint" />
          </mxGeometry>
        </mxCell>
        <mxCell id="ygEIZ-_n2uFTBbBvWgzW-65" value="" style="endArrow=none;html=1;rounded=0;exitX=1;exitY=0.75;exitDx=0;exitDy=0;" edge="1" parent="1" source="ygEIZ-_n2uFTBbBvWgzW-2" target="ygEIZ-_n2uFTBbBvWgzW-14">
          <mxGeometry width="50" height="50" relative="1" as="geometry">
            <mxPoint x="180" y="425" as="sourcePoint" />
            <mxPoint x="230" y="375" as="targetPoint" />
          </mxGeometry>
        </mxCell>
        <mxCell id="ygEIZ-_n2uFTBbBvWgzW-66" value="" style="endArrow=none;html=1;rounded=0;entryX=0.25;entryY=1;entryDx=0;entryDy=0;" edge="1" parent="1" target="ygEIZ-_n2uFTBbBvWgzW-2">
          <mxGeometry width="50" height="50" relative="1" as="geometry">
            <mxPoint x="70" y="490" as="sourcePoint" />
            <mxPoint x="120" y="440" as="targetPoint" />
          </mxGeometry>
        </mxCell>
        <mxCell id="ygEIZ-_n2uFTBbBvWgzW-67" value="" style="endArrow=none;html=1;rounded=0;exitX=0.2;exitY=0;exitDx=0;exitDy=0;exitPerimeter=0;" edge="1" parent="1" source="ygEIZ-_n2uFTBbBvWgzW-29">
          <mxGeometry width="50" height="50" relative="1" as="geometry">
            <mxPoint x="120" y="480" as="sourcePoint" />
            <mxPoint x="170" y="430" as="targetPoint" />
          </mxGeometry>
        </mxCell>
        <mxCell id="ygEIZ-_n2uFTBbBvWgzW-68" value="" style="endArrow=none;html=1;rounded=0;exitX=0.4;exitY=0.05;exitDx=0;exitDy=0;exitPerimeter=0;" edge="1" parent="1" source="ygEIZ-_n2uFTBbBvWgzW-20">
          <mxGeometry width="50" height="50" relative="1" as="geometry">
            <mxPoint x="180" y="540" as="sourcePoint" />
            <mxPoint x="150" y="430" as="targetPoint" />
          </mxGeometry>
        </mxCell>
        <mxCell id="ygEIZ-_n2uFTBbBvWgzW-75" value="" style="endArrow=none;html=1;rounded=0;entryX=0;entryY=0.75;entryDx=0;entryDy=0;startArrow=none;" edge="1" parent="1" target="ygEIZ-_n2uFTBbBvWgzW-5">
          <mxGeometry width="50" height="50" relative="1" as="geometry">
            <mxPoint x="430" y="394" as="sourcePoint" />
            <mxPoint x="370" y="360" as="targetPoint" />
          </mxGeometry>
        </mxCell>
        <mxCell id="ygEIZ-_n2uFTBbBvWgzW-56" value="&lt;b&gt;&lt;i&gt;Claimed by&lt;/i&gt;&lt;/b&gt;" style="rhombus;whiteSpace=wrap;html=1;" vertex="1" parent="1">
          <mxGeometry x="360" y="345" width="80" height="80" as="geometry" />
        </mxCell>
        <mxCell id="ygEIZ-_n2uFTBbBvWgzW-76" value="" style="endArrow=none;html=1;rounded=0;entryX=0;entryY=0.75;entryDx=0;entryDy=0;" edge="1" parent="1" target="ygEIZ-_n2uFTBbBvWgzW-56">
          <mxGeometry width="50" height="50" relative="1" as="geometry">
            <mxPoint x="180" y="400" as="sourcePoint" />
            <mxPoint x="555" y="393.75" as="targetPoint" />
          </mxGeometry>
        </mxCell>
        <mxCell id="ygEIZ-_n2uFTBbBvWgzW-77" value="" style="endArrow=none;html=1;rounded=0;entryX=0.731;entryY=0.96;entryDx=0;entryDy=0;entryPerimeter=0;exitX=0.381;exitY=0.022;exitDx=0;exitDy=0;exitPerimeter=0;" edge="1" parent="1" source="ygEIZ-_n2uFTBbBvWgzW-5" target="ygEIZ-_n2uFTBbBvWgzW-44">
          <mxGeometry width="50" height="50" relative="1" as="geometry">
            <mxPoint x="570" y="390" as="sourcePoint" />
            <mxPoint x="620" y="340" as="targetPoint" />
          </mxGeometry>
        </mxCell>
        <mxCell id="ygEIZ-_n2uFTBbBvWgzW-78" value="" style="endArrow=none;html=1;rounded=0;entryX=0.277;entryY=0.967;entryDx=0;entryDy=0;entryPerimeter=0;" edge="1" parent="1" target="ygEIZ-_n2uFTBbBvWgzW-31">
          <mxGeometry width="50" height="50" relative="1" as="geometry">
            <mxPoint x="662.5" y="390" as="sourcePoint" />
            <mxPoint x="700" y="340" as="targetPoint" />
          </mxGeometry>
        </mxCell>
        <mxCell id="ygEIZ-_n2uFTBbBvWgzW-81" value="" style="endArrow=none;html=1;rounded=0;entryX=0.415;entryY=-0.05;entryDx=0;entryDy=0;entryPerimeter=0;" edge="1" parent="1" source="ygEIZ-_n2uFTBbBvWgzW-5" target="ygEIZ-_n2uFTBbBvWgzW-42">
          <mxGeometry width="50" height="50" relative="1" as="geometry">
            <mxPoint x="608.75" y="455" as="sourcePoint" />
            <mxPoint x="609" y="460" as="targetPoint" />
          </mxGeometry>
        </mxCell>
        <mxCell id="ygEIZ-_n2uFTBbBvWgzW-82" value="" style="endArrow=none;html=1;rounded=0;entryX=0.042;entryY=0.75;entryDx=0;entryDy=0;entryPerimeter=0;exitX=1;exitY=0.75;exitDx=0;exitDy=0;" edge="1" parent="1" source="ygEIZ-_n2uFTBbBvWgzW-5" target="ygEIZ-_n2uFTBbBvWgzW-39">
          <mxGeometry width="50" height="50" relative="1" as="geometry">
            <mxPoint x="620" y="450" as="sourcePoint" />
            <mxPoint x="670" y="400" as="targetPoint" />
          </mxGeometry>
        </mxCell>
        <mxCell id="ygEIZ-_n2uFTBbBvWgzW-83" value="" style="endArrow=none;html=1;rounded=0;exitX=0;exitY=0.5;exitDx=0;exitDy=0;entryX=0.75;entryY=1;entryDx=0;entryDy=0;" edge="1" parent="1" source="ygEIZ-_n2uFTBbBvWgzW-40" target="ygEIZ-_n2uFTBbBvWgzW-5">
          <mxGeometry width="50" height="50" relative="1" as="geometry">
            <mxPoint x="620" y="450" as="sourcePoint" />
            <mxPoint x="640" y="410" as="targetPoint" />
          </mxGeometry>
        </mxCell>
        <mxCell id="ygEIZ-_n2uFTBbBvWgzW-84" value="" style="endArrow=none;html=1;rounded=0;entryX=0.614;entryY=1.044;entryDx=0;entryDy=0;entryPerimeter=0;exitX=0;exitY=0;exitDx=0;exitDy=0;" edge="1" parent="1" source="ygEIZ-_n2uFTBbBvWgzW-41" target="ygEIZ-_n2uFTBbBvWgzW-5">
          <mxGeometry width="50" height="50" relative="1" as="geometry">
            <mxPoint x="620" y="450" as="sourcePoint" />
            <mxPoint x="670" y="400" as="targetPoint" />
          </mxGeometry>
        </mxCell>
        <mxCell id="ygEIZ-_n2uFTBbBvWgzW-85" value="" style="endArrow=none;html=1;rounded=0;entryX=0.373;entryY=1;entryDx=0;entryDy=0;entryPerimeter=0;exitX=0.68;exitY=-0.022;exitDx=0;exitDy=0;exitPerimeter=0;" edge="1" parent="1" source="ygEIZ-_n2uFTBbBvWgzW-2" target="ygEIZ-_n2uFTBbBvWgzW-1">
          <mxGeometry width="50" height="50" relative="1" as="geometry">
            <mxPoint x="150" y="380" as="sourcePoint" />
            <mxPoint x="160" y="180" as="targetPoint" />
          </mxGeometry>
        </mxCell>
        <mxCell id="ygEIZ-_n2uFTBbBvWgzW-86" value="&lt;b&gt;&lt;i&gt;Sells&lt;/i&gt;&lt;/b&gt;" style="rhombus;whiteSpace=wrap;html=1;" vertex="1" parent="1">
          <mxGeometry x="110" y="200" width="80" height="80" as="geometry" />
        </mxCell>
        <mxCell id="ygEIZ-_n2uFTBbBvWgzW-88" value="" style="endArrow=none;html=1;rounded=0;entryX=0;entryY=0.5;entryDx=0;entryDy=0;exitX=1;exitY=0.5;exitDx=0;exitDy=0;startArrow=none;" edge="1" parent="1" source="ygEIZ-_n2uFTBbBvWgzW-90" target="ygEIZ-_n2uFTBbBvWgzW-2">
          <mxGeometry width="50" height="50" relative="1" as="geometry">
            <mxPoint x="-130" y="455" as="sourcePoint" />
            <mxPoint x="-80" y="405" as="targetPoint" />
          </mxGeometry>
        </mxCell>
        <mxCell id="ygEIZ-_n2uFTBbBvWgzW-90" value="&lt;b&gt;&lt;i&gt;Held by&lt;/i&gt;&lt;/b&gt;" style="rhombus;whiteSpace=wrap;html=1;" vertex="1" parent="1">
          <mxGeometry x="-85" y="367.5" width="80" height="80" as="geometry" />
        </mxCell>
        <mxCell id="ygEIZ-_n2uFTBbBvWgzW-91" value="" style="endArrow=none;html=1;rounded=0;entryX=0;entryY=0.5;entryDx=0;entryDy=0;exitX=1;exitY=0.5;exitDx=0;exitDy=0;" edge="1" parent="1" source="ygEIZ-_n2uFTBbBvWgzW-4" target="ygEIZ-_n2uFTBbBvWgzW-90">
          <mxGeometry width="50" height="50" relative="1" as="geometry">
            <mxPoint x="-146" y="408.75" as="sourcePoint" />
            <mxPoint x="80" y="407.5" as="targetPoint" />
          </mxGeometry>
        </mxCell>
        <mxCell id="ygEIZ-_n2uFTBbBvWgzW-92" value="" style="endArrow=none;html=1;rounded=0;entryX=0.13;entryY=1;entryDx=0;entryDy=0;entryPerimeter=0;exitX=1;exitY=0;exitDx=0;exitDy=0;" edge="1" parent="1" source="ygEIZ-_n2uFTBbBvWgzW-43" target="ygEIZ-_n2uFTBbBvWgzW-5">
          <mxGeometry width="50" height="50" relative="1" as="geometry">
            <mxPoint x="544" y="449" as="sourcePoint" />
            <mxPoint x="594" y="399" as="targetPoint" />
          </mxGeometry>
        </mxCell>
        <mxCell id="ygEIZ-_n2uFTBbBvWgzW-95" value="" style="endArrow=none;html=1;rounded=0;entryX=0.5;entryY=1;entryDx=0;entryDy=0;exitX=0.5;exitY=0;exitDx=0;exitDy=0;" edge="1" parent="1" source="ygEIZ-_n2uFTBbBvWgzW-1" target="ygEIZ-_n2uFTBbBvWgzW-12">
          <mxGeometry width="50" height="50" relative="1" as="geometry">
            <mxPoint x="143" y="147" as="sourcePoint" />
            <mxPoint x="193" y="97" as="targetPoint" />
          </mxGeometry>
        </mxCell>
        <mxCell id="ygEIZ-_n2uFTBbBvWgzW-96" value="" style="endArrow=none;html=1;rounded=0;entryX=1;entryY=0.5;entryDx=0;entryDy=0;exitX=0;exitY=0.25;exitDx=0;exitDy=0;" edge="1" parent="1" source="ygEIZ-_n2uFTBbBvWgzW-1" target="ygEIZ-_n2uFTBbBvWgzW-10">
          <mxGeometry width="50" height="50" relative="1" as="geometry">
            <mxPoint x="56" y="170" as="sourcePoint" />
            <mxPoint x="106" y="120" as="targetPoint" />
          </mxGeometry>
        </mxCell>
        <mxCell id="ygEIZ-_n2uFTBbBvWgzW-97" value="" style="endArrow=none;html=1;rounded=0;entryX=0;entryY=1;entryDx=0;entryDy=0;exitX=1;exitY=0.5;exitDx=0;exitDy=0;" edge="1" parent="1" source="ygEIZ-_n2uFTBbBvWgzW-1" target="ygEIZ-_n2uFTBbBvWgzW-7">
          <mxGeometry width="50" height="50" relative="1" as="geometry">
            <mxPoint x="239" y="187" as="sourcePoint" />
            <mxPoint x="289" y="137" as="targetPoint" />
          </mxGeometry>
        </mxCell>
        <mxCell id="ygEIZ-_n2uFTBbBvWgzW-98" value="" style="endArrow=none;html=1;rounded=0;entryX=0.431;entryY=0.992;entryDx=0;entryDy=0;entryPerimeter=0;" edge="1" parent="1" target="ygEIZ-_n2uFTBbBvWgzW-22">
          <mxGeometry width="50" height="50" relative="1" as="geometry">
            <mxPoint x="-180" y="392" as="sourcePoint" />
            <mxPoint x="-151" y="355" as="targetPoint" />
          </mxGeometry>
        </mxCell>
        <mxCell id="ygEIZ-_n2uFTBbBvWgzW-99" value="" style="endArrow=none;html=1;rounded=0;exitX=0.25;exitY=0;exitDx=0;exitDy=0;" edge="1" parent="1" source="ygEIZ-_n2uFTBbBvWgzW-4">
          <mxGeometry width="50" height="50" relative="1" as="geometry">
            <mxPoint x="-295" y="421" as="sourcePoint" />
            <mxPoint x="-256" y="368" as="targetPoint" />
          </mxGeometry>
        </mxCell>
        <mxCell id="ygEIZ-_n2uFTBbBvWgzW-100" value="" style="endArrow=none;html=1;rounded=0;entryX=0.614;entryY=1.041;entryDx=0;entryDy=0;entryPerimeter=0;" edge="1" parent="1" source="ygEIZ-_n2uFTBbBvWgzW-24" target="ygEIZ-_n2uFTBbBvWgzW-4">
          <mxGeometry width="50" height="50" relative="1" as="geometry">
            <mxPoint x="-176" y="460" as="sourcePoint" />
            <mxPoint x="-165" y="421" as="targetPoint" />
          </mxGeometry>
        </mxCell>
        <mxCell id="ygEIZ-_n2uFTBbBvWgzW-101" value="" style="endArrow=none;html=1;rounded=0;exitX=0.748;exitY=0.025;exitDx=0;exitDy=0;exitPerimeter=0;" edge="1" parent="1" source="ygEIZ-_n2uFTBbBvWgzW-27" target="ygEIZ-_n2uFTBbBvWgzW-4">
          <mxGeometry width="50" height="50" relative="1" as="geometry">
            <mxPoint x="-271" y="471" as="sourcePoint" />
            <mxPoint x="-252" y="427" as="targetPoint" />
          </mxGeometry>
        </mxCell>
        <mxCell id="ygEIZ-_n2uFTBbBvWgzW-102" value="" style="endArrow=none;html=1;rounded=0;entryX=0;entryY=0.75;entryDx=0;entryDy=0;exitX=1;exitY=0.5;exitDx=0;exitDy=0;" edge="1" parent="1" source="ygEIZ-_n2uFTBbBvWgzW-26" target="ygEIZ-_n2uFTBbBvWgzW-4">
          <mxGeometry width="50" height="50" relative="1" as="geometry">
            <mxPoint x="-287" y="462" as="sourcePoint" />
            <mxPoint x="-237" y="412" as="targetPoint" />
          </mxGeometry>
        </mxCell>
      </root>
    </mxGraphModel>
  </diagram>
</mxfile>
